<svg width="158" height="167" viewBox="0 0 158 167" fill="none" xmlns="http://www.w3.org/2000/svg">
<rect width="158" height="166.625" rx="16" fill="#222222"/>
<path fill-rule="evenodd" clip-rule="evenodd" d="M30.3562 12C20.2183 12 12 20.2183 12 30.3562V74.8125H76.3411L85.6616 67.1563C89.9692 63.791 92.123 60.0892 92.123 56.0509V54.8394C92.123 50.6664 91.1134 47.7049 89.0942 45.955C87.2097 44.0704 84.0463 43.1281 79.6041 43.1281H75.9696C71.7966 43.1281 68.7678 44.0031 66.8833 45.7531C65.1333 47.503 64.2583 50.5318 64.2583 54.8394V59.0796C64.2583 62.0411 62.8449 63.5218 60.0181 63.5218H42.855C40.0282 63.5218 38.6148 62.0411 38.6148 59.0796V54.4355C38.6148 43.9358 41.5089 35.8591 47.2972 30.2054C53.0855 24.5517 61.2969 21.7248 71.9312 21.7248H83.8444C94.4787 21.7248 102.69 24.5517 108.478 30.2054C114.267 35.8591 117.161 43.9358 117.161 54.4355V57.2624C117.161 63.7669 114.215 69.617 108.325 74.8125H146V30.3562C146 20.2183 137.782 12 127.644 12H30.3562Z" fill="white"/>
<path fill-rule="evenodd" clip-rule="evenodd" d="M89.2961 144.611V119.775C89.2961 117.218 88.0173 115.939 85.4597 115.939H67.489C64.7968 115.939 63.4507 117.285 63.4507 119.977V144.409C63.4507 147.371 64.7968 148.852 67.489 148.852H85.4597C88.0173 148.852 89.2961 147.438 89.2961 144.611ZM89.0942 98.5741V93.3242C89.0942 92.8203 89.1368 92.3164 89.2219 91.8125H146V136.269C146 146.407 137.782 154.625 127.644 154.625H30.3562C20.2183 154.625 12 146.407 12 136.269V91.8125L64.6845 91.8125C64.6696 92.2403 64.6622 92.6769 64.6622 93.1223V98.5741C64.6622 101.401 66.0756 102.814 68.9024 102.814H84.854C87.6808 102.814 89.0942 101.401 89.0942 98.5741Z" fill="white"/>
</svg>
