<svg width="185" height="249" viewBox="0 0 185 249" fill="none" xmlns="http://www.w3.org/2000/svg">
<g filter="url(#filter0_d_120_429)">
<path d="M1 38C1 35.7909 2.79086 34 5 34H14V114.367H5C2.79086 114.367 1 112.576 1 110.367V38Z" fill="black"/>
<path d="M184 110.367C184 112.576 182.209 114.367 180 114.367H171V34H180C182.209 34 184 35.7908 184 38V110.367Z" fill="black"/>
<path d="M14 4C14 1.79086 15.7909 0 18 0H167C169.209 0 171 1.79086 171 4V242C171 244.209 169.209 246 167 246H18C15.7909 246 14 244.209 14 242V114.367V4Z" fill="black"/>
<path d="M54 40H130V195H54V40Z" fill="#585858"/>
</g>
<defs>
<filter id="filter0_d_120_429" x="0" y="0" width="185" height="249" filterUnits="userSpaceOnUse" color-interpolation-filters="sRGB">
<feFlood flood-opacity="0" result="BackgroundImageFix"/>
<feColorMatrix in="SourceAlpha" type="matrix" values="0 0 0 0 0 0 0 0 0 0 0 0 0 0 0 0 0 0 127 0" result="hardAlpha"/>
<feOffset dy="2"/>
<feGaussianBlur stdDeviation="0.5"/>
<feComposite in2="hardAlpha" operator="out"/>
<feColorMatrix type="matrix" values="0 0 0 0 1 0 0 0 0 1 0 0 0 0 1 0 0 0 0.15 0"/>
<feBlend mode="normal" in2="BackgroundImageFix" result="effect1_dropShadow_120_429"/>
<feBlend mode="normal" in="SourceGraphic" in2="effect1_dropShadow_120_429" result="shape"/>
</filter>
</defs>
</svg>
